<svg width="41" height="43" viewBox="0 0 41 43" fill="none" xmlns="http://www.w3.org/2000/svg">
<path d="M40.5 20.2484V40.4984C40.5 40.946 40.3222 41.3752 40.0057 41.6917C39.6893 42.0081 39.2601 42.1859 38.8125 42.1859H27C26.5524 42.1859 26.1232 42.0081 25.8068 41.6917C25.4903 41.3752 25.3125 40.946 25.3125 40.4984V29.5297C25.3125 29.3059 25.2236 29.0913 25.0654 28.9331C24.9071 28.7748 24.6925 28.6859 24.4688 28.6859H16.0312C15.8075 28.6859 15.5929 28.7748 15.4346 28.9331C15.2764 29.0913 15.1875 29.3059 15.1875 29.5297V40.4984C15.1875 40.946 15.0097 41.3752 14.6932 41.6917C14.3768 42.0081 13.9476 42.1859 13.5 42.1859H1.6875C1.23995 42.1859 0.810725 42.0081 0.494258 41.6917C0.17779 41.3752 0 40.946 0 40.4984V20.2484C0.000414892 19.3535 0.356266 18.4953 0.989297 17.8627L17.8643 0.987733C18.4972 0.355276 19.3553 0 20.25 0C21.1447 0 22.0028 0.355276 22.6357 0.987733L39.5107 17.8627C40.1437 18.4953 40.4996 19.3535 40.5 20.2484Z" fill="#84E4C7"/>
</svg>
