<svg width="39" height="39" viewBox="0 0 39 39" fill="none" xmlns="http://www.w3.org/2000/svg">
<path d="M2.98547 27.3461C2.39994 26.0826 1.96109 24.7883 1.66894 23.4631C1.37679 22.138 1.2301 20.782 1.22887 19.3952C1.22887 16.8374 1.71455 14.4336 2.68592 12.1839C3.65729 9.93422 4.97444 7.9773 6.63735 6.31315C8.30027 4.649 10.2572 3.33186 12.5081 2.36172C14.759 1.39158 17.1628 0.905898 19.7194 0.904665C22.276 0.903433 24.6798 1.38912 26.9307 2.36172C29.1816 3.33432 31.1386 4.65147 32.8015 6.31315C34.4644 7.97483 35.7822 9.93175 36.7548 12.1839C37.7274 14.436 38.2124 16.8398 38.21 19.3952C38.2075 21.9506 37.7218 24.3544 36.7529 26.6065C35.784 28.8587 34.4669 30.8156 32.8015 32.4773C31.1361 34.139 29.1792 35.4567 26.9307 36.4305C24.6823 37.4044 22.2785 37.8895 19.7194 37.8858C18.3326 37.8858 16.9767 37.7391 15.6515 37.4457C14.3263 37.1523 13.032 36.7135 11.7685 36.1292L2.61566 38.8103C1.90685 39.026 1.2905 38.8719 0.766603 38.348C0.242705 37.8241 0.0886167 37.2078 0.30434 36.499L2.98547 27.3461ZM17.8704 21.2443V24.9424C17.8704 25.4663 18.0479 25.9057 18.4029 26.2608C18.7579 26.6158 19.1967 26.7927 19.7194 26.7914C20.2421 26.7902 20.6815 26.6127 21.0378 26.2589C21.394 25.9051 21.5709 25.4663 21.5685 24.9424V21.2443H25.2666C25.7905 21.2443 26.2299 21.0668 26.585 20.7117C26.94 20.3567 27.1169 19.9179 27.1156 19.3952C27.1144 18.8725 26.9369 18.4337 26.5831 18.0787C26.2293 17.7237 25.7905 17.5462 25.2666 17.5462H21.5685V13.848C21.5685 13.3241 21.391 12.8853 21.0359 12.5315C20.6809 12.1777 20.2421 12.0002 19.7194 11.999C19.1967 11.9978 18.7579 12.1753 18.4029 12.5315C18.0479 12.8878 17.8704 13.3266 17.8704 13.848V17.5462H14.1722C13.6484 17.5462 13.2095 17.7237 12.8557 18.0787C12.5019 18.4337 12.3244 18.8725 12.3232 19.3952C12.322 19.9179 12.4995 20.3573 12.8557 20.7136C13.212 21.0698 13.6508 21.2467 14.1722 21.2443H17.8704Z" fill="#84E4C7"/>
</svg>
