<svg width="44" height="40" viewBox="0 0 44 40" fill="none" xmlns="http://www.w3.org/2000/svg">
<path d="M14.21 1.90462V30.9046M28.21 8.90462V36.9046M8.71596 4.29662L6.26196 5.72062C4.28396 6.86662 3.29596 7.44062 2.75396 8.39462C2.20996 9.34862 2.20996 10.5086 2.20996 12.8326V29.1606C2.20996 32.2126 2.20996 33.7406 2.89396 34.5886C3.34996 35.1526 3.98796 35.5326 4.69396 35.6586C5.75396 35.8486 7.05396 35.0946 9.64996 33.5886C11.414 32.5666 13.11 31.5026 15.22 31.7926C16.18 31.9226 17.094 32.3786 18.926 33.2886L26.552 37.0806C28.202 37.9006 28.218 37.9046 30.052 37.9046H34.21C37.982 37.9046 39.866 37.9046 41.038 36.7066C42.21 35.5106 42.21 33.5826 42.21 29.7266V16.2466C42.21 12.3926 42.21 10.4666 41.038 9.26662C39.866 8.07062 37.982 8.07062 34.21 8.07062H30.052C28.218 8.07062 28.202 8.06662 26.552 7.24662L19.89 3.93462C17.108 2.55062 15.716 1.85862 14.234 1.90462C12.752 1.95062 11.41 2.73462 8.71596 4.29662Z" stroke="#84E4C7" stroke-width="3" stroke-linecap="round" stroke-linejoin="round"/>
</svg>
