<svg width="36" height="36" viewBox="0 0 36 36" fill="none" xmlns="http://www.w3.org/2000/svg">
<path d="M15.9092 5.28966V12.2413C15.9092 12.8169 15.7956 13.3869 15.5747 13.9184C15.3539 14.45 15.0303 14.9327 14.6225 15.3389C14.2146 15.7451 13.7306 16.0667 13.1981 16.2854C12.6656 16.504 12.0952 16.6154 11.5196 16.613H4.6038C4.02975 16.6165 3.46091 16.504 2.93138 16.2824C2.40184 16.0607 1.92252 15.7344 1.52213 15.323C1.11644 14.9193 0.79506 14.4389 0.576677 13.9099C0.358293 13.3808 0.247266 12.8137 0.250051 12.2413V5.30758C0.250041 4.15124 0.708166 3.042 1.52414 2.22266C2.34012 1.40333 3.44747 0.940652 4.6038 0.935913H11.5376C12.111 0.936464 12.6786 1.05076 13.2076 1.27219C13.7366 1.49362 14.2164 1.81779 14.6192 2.22591C15.0276 2.62482 15.3521 3.10135 15.5737 3.6275C15.7952 4.15365 15.9093 4.71878 15.9092 5.28966ZM35.1696 5.30758V12.2413C35.1603 13.3948 34.6992 14.4987 33.8852 15.316C33.0713 16.1333 31.9693 16.599 30.8159 16.613H23.8642C22.7054 16.6059 21.5944 16.1499 20.7646 15.3409C20.3592 14.9333 20.0382 14.4497 19.8199 13.9178C19.6016 13.386 19.4904 12.8162 19.4926 12.2413V5.30758C19.4901 4.73368 19.603 4.16515 19.8246 3.63575C20.0462 3.10636 20.372 2.62692 20.7826 2.22591C21.1854 1.81779 21.6652 1.49362 22.1942 1.27219C22.7231 1.05076 23.2908 0.936464 23.8642 0.935913H30.798C31.9545 0.945278 33.061 1.40887 33.8788 2.2267C34.6967 3.04452 35.1603 4.15104 35.1696 5.30758ZM35.1696 24.568V31.5017C35.1603 32.6552 34.6992 33.7591 33.8852 34.5764C33.0713 35.3937 31.9693 35.8594 30.8159 35.8734H23.8642C22.698 35.8852 21.5731 35.4417 20.7288 34.6372C20.3218 34.2307 19.9997 33.7474 19.7813 33.2152C19.5629 32.6831 19.4526 32.1128 19.4567 31.5376V24.6038C19.4544 24.0299 19.5673 23.4614 19.7889 22.9321C20.0105 22.4027 20.3362 21.9232 20.7467 21.5222C21.1496 21.1141 21.6294 20.79 22.1584 20.5686C22.6873 20.3472 23.255 20.2328 23.8284 20.2322H30.7621C31.9187 20.2415 33.0252 20.7051 33.843 21.5229C34.6608 22.3408 35.1244 23.4473 35.1338 24.6038L35.1696 24.568ZM15.9092 24.5859V31.5197C15.8951 32.6762 15.427 33.7808 14.6058 34.5953C13.7846 35.4097 12.6762 35.8688 11.5196 35.8734H4.6038C4.03139 35.8758 3.46418 35.7648 2.93489 35.5468C2.4056 35.3289 1.92471 35.0083 1.51995 34.6035C1.11519 34.1988 0.79459 33.7179 0.576633 33.1886C0.358676 32.6593 0.247681 32.0921 0.250051 31.5197V24.5859C0.254667 23.4293 0.713721 22.3209 1.5282 21.4997C2.34267 20.6785 3.44729 20.2104 4.6038 20.1963H11.5376C12.6993 20.2063 13.8113 20.6691 14.6371 21.4863C15.4543 22.3107 15.9117 23.4252 15.9092 24.5859Z" fill="#84E4C7"/>
</svg>
